<svg width="352" height="352" viewBox="0 0 352 352" fill="none" xmlns="http://www.w3.org/2000/svg">
<path d="M281.211 293.829C262.606 306.106 241.335 312.613 219.642 312.613C184.13 312.613 150.462 295.24 127.266 264.949C127.183 264.845 127.105 264.75 127.022 264.646C109.231 243.529 98.6064 212.507 97.8739 179.723L97.8698 172.03C98.6062 139.053 109.231 108.033 127.262 86.6157C150.46 56.3255 184.134 38.9525 219.644 38.9525C241.34 38.9525 262.614 45.4591 281.231 57.7439C314.45 87.8593 333.503 130.838 333.503 175.785C333.503 220.736 314.447 263.718 281.219 293.833L281.211 293.829ZM167.924 334.511C83.5288 330.529 17.4135 260.809 17.4135 175.783C17.4135 88.1591 88.3111 16.8669 175.613 16.8669C175.65 16.8669 176.01 16.8711 176.052 16.8711C189.875 16.921 203.504 18.789 216.627 22.3459C177.065 23.2944 139.867 42.8929 114.395 76.1618C94.2008 100.129 82.1485 134.937 81.3292 171.839V179.905C82.1484 216.54 94.1511 251.282 114.271 275.255C139.972 308.728 177.133 328.268 216.636 329.216C200.931 333.476 184.266 335.29 167.918 334.508L167.924 334.511ZM291.822 44.9153C259.973 16.2601 218.879 0.393381 175.929 0.230733C175.875 0.226573 175.507 0.222412 175.458 0.222412C79.1855 0.222412 0.859436 78.9794 0.859436 175.779C0.859436 269.709 73.8994 346.736 167.155 351.13C169.907 351.259 172.674 351.33 175.459 351.33C218.438 351.33 259.751 335.475 291.77 306.678L291.808 306.654C328.82 273.364 350.05 225.663 350.05 175.776C350.05 125.896 328.825 78.1934 291.82 44.9112" fill="#0ED3DF"/>
<path d="M207.45 65.1873C238.597 85.2992 260.044 127.352 260.044 176C260.044 224.649 238.597 266.707 207.45 286.814C247.209 283.501 278.76 235.161 278.76 176C278.76 116.839 247.207 68.5009 207.45 65.1873Z" fill="#0ED3DF"/>
</svg>
